<?xml version="1.0" standalone="no"?>
<!DOCTYPE svg PUBLIC "-//W3C//DTD SVG 20010904//EN"
 "http://www.w3.org/TR/2001/REC-SVG-20010904/DTD/svg10.dtd">
<svg version="1.0" xmlns="http://www.w3.org/2000/svg"
 width="512.000000pt" height="512.000000pt" viewBox="0 0 512.000000 512.000000"
 preserveAspectRatio="xMidYMid meet">
<metadata>
Created by potrace 1.14, written by Peter Selinger 2001-2017
</metadata>
<g transform="translate(0.000000,512.000000) scale(0.100000,-0.100000)"
fill="#000000" stroke="none">
<path d="M1959 5008 c-167 -41 -292 -167 -329 -332 -73 -329 231 -612 559
-520 202 56 334 246 318 459 -19 271 -281 458 -548 393z"/>
<path d="M1619 3823 c-4 -106 0 -1934 5 -2008 13 -206 42 -334 118 -525 180
-453 475 -772 908 -983 177 -87 297 -126 524 -173 11 -2 42 -6 70 -9 28 -3 65
-8 81 -10 17 -3 63 -7 103 -9 l72 -5 0 444 0 445 -27 1 c-16 0 -35 2 -43 4 -8
1 -35 6 -60 10 -58 8 -196 43 -235 58 -39 16 -172 84 -188 97 -153 123 -189
160 -273 276 -84 118 -120 204 -148 354 -7 36 -13 68 -14 73 -1 4 -2 450 -2
992 l0 985 -445 0 c-417 0 -445 -1 -446 -17z"/>
<path d="M2677 3833 c-3 -5 -5 -204 -5 -444 l0 -437 414 0 414 -1 0 445 0 444
-409 0 c-226 0 -412 -3 -414 -7z"/>
</g>
</svg>
